<svg width="29" height="22" viewBox="0 0 29 22" fill="none" xmlns="http://www.w3.org/2000/svg">
<path d="M8.47613 19.2145L8.47011 19.2114L8.4512 19.1992C8.34056 19.127 8.2308 19.053 8.12196 18.9771C6.81344 18.0554 5.59059 16.9728 4.47369 15.747C2.49568 13.5594 0.399902 10.3131 0.399902 6.31475C0.399902 3.33131 2.51803 0.965343 5.07457 0.965343C5.78527 0.961217 6.48762 1.14706 7.12936 1.50905C7.77111 1.87104 8.33576 2.39987 8.7813 3.0562C9.22693 2.39973 9.79171 1.87083 10.4336 1.50883C11.0755 1.14683 11.778 0.961064 12.4889 0.965343C15.0446 0.965343 17.1627 3.33131 17.1627 6.31475C17.1627 10.3141 15.0669 13.5604 13.0889 15.746C11.972 16.9718 10.7492 18.0544 9.44063 18.976C9.3318 19.0523 9.22204 19.1267 9.11139 19.1992L9.09248 19.2114L9.08647 19.2155L9.08389 19.2165C8.99067 19.275 8.88678 19.3056 8.7813 19.3056C8.67581 19.3056 8.57192 19.275 8.47871 19.2165L8.47613 19.2145Z" fill="white"/>
<path d="M20.4791 19.2012L23.839 12.9791H21.5218V8.95302L18.046 15.1751H20.4791V19.2012ZM20.9425 21.3972C19.874 21.3972 18.8699 21.2051 17.9302 20.8208C16.9904 20.4365 16.1729 19.9149 15.4778 19.2561C14.7826 18.5973 14.2323 17.8226 13.8268 16.932C13.4213 16.0413 13.2185 15.0897 13.2185 14.0771C13.2185 13.0645 13.4213 12.1129 13.8268 11.2223C14.2323 10.3316 14.7826 9.55693 15.4778 8.89812C16.1729 8.23931 16.9904 7.71775 17.9302 7.33345C18.8699 6.94914 19.874 6.75699 20.9425 6.75699C22.011 6.75699 23.0152 6.94914 23.9549 7.33345C24.8947 7.71775 25.7121 8.23931 26.4073 8.89812C27.1025 9.55693 27.6528 10.3316 28.0583 11.2223C28.4638 12.1129 28.6666 13.0645 28.6666 14.0771C28.6666 15.0897 28.4638 16.0413 28.0583 16.932C27.6528 17.8226 27.1025 18.5973 26.4073 19.2561C25.7121 19.9149 24.8947 20.4365 23.9549 20.8208C23.0152 21.2051 22.011 21.3972 20.9425 21.3972Z" fill="#894189"/>
<path d="M20.8723 18.7353L23.9268 13.0788H21.8202V9.41879L18.6604 15.0752H20.8723V18.7353ZM21.2936 20.7317C20.3222 20.7317 19.4094 20.557 18.5551 20.2076C17.7007 19.8583 16.9576 19.3841 16.3256 18.7852C15.6937 18.1863 15.1933 17.482 14.8247 16.6724C14.4561 15.8627 14.2717 14.9976 14.2717 14.077C14.2717 13.1565 14.4561 12.2914 14.8247 11.4817C15.1933 10.6721 15.6937 9.9678 16.3256 9.36888C16.9576 8.76996 17.7007 8.29582 18.5551 7.94645C19.4094 7.59708 20.3222 7.42239 21.2936 7.42239C22.2649 7.42239 23.1778 7.59708 24.0321 7.94645C24.8864 8.29582 25.6296 8.76996 26.2615 9.36888C26.8935 9.9678 27.3938 10.6721 27.7625 11.4817C28.1311 12.2914 28.3154 13.1565 28.3154 14.077C28.3154 14.9976 28.1311 15.8627 27.7625 16.6724C27.3938 17.482 26.8935 18.1863 26.2615 18.7852C25.6296 19.3841 24.8864 19.8583 24.0321 20.2076C23.1778 20.557 22.2649 20.7317 21.2936 20.7317Z" fill="white"/>
</svg>
